<svg xmlns="http://www.w3.org/2000/svg" width="350" height="250"><g transform="translate(175 145)" font-family="sans-serif" id="chart"><defs><clipPath id="trianglePath"><path d="M6.123233995736766e-15,-100L-86.60254037844388,49.99999999999999L86.60254037844388,49.99999999999999Z"></path></clipPath></defs><g class="axis-labels"><g class="labels" font-size="14"><text transform="translate(86.60254037844388,-50.000000000000014)" text-anchor="middle">Ga</text><text transform="translate(-86.60254037844386,-50)" text-anchor="middle">Yb</text><text transform="translate(0,99.99999999999999)" text-anchor="middle">Au</text></g></g><g class="grid"><path d="M86.603,50L-86.603,50 M77.942,35L-77.942,35 M69.282,20L-69.282,20 M60.622,5L-60.622,5 M51.962,-10L-51.962,-10 M43.301,-25L-43.301,-25 M34.641,-40L-34.641,-40 M25.981,-55L-25.981,-55 M17.321,-70L-17.321,-70 M8.66,-85L-8.66,-85 M0,-100L0,-100" stroke="#e3e3e3" stroke-width="1"></path><path d="M0,-100L86.603,50 M-8.66,-85L69.282,50 M-17.321,-70L51.962,50 M-25.981,-55L34.641,50 M-34.641,-40L17.321,50 M-43.301,-25L0,50 M-51.962,-10L-17.321,50 M-60.622,5L-34.641,50 M-69.282,20L-51.962,50 M-77.942,35L-69.282,50 M-86.603,50L-86.603,50" stroke="#e3e3e3" stroke-width="1"></path><path d="M-86.603,50L0,-100 M-69.282,50L8.66,-85 M-51.962,50L17.321,-70 M-34.641,50L25.981,-55 M-17.321,50L34.641,-40 M0,50L43.301,-25 M17.321,50L51.962,-10 M34.641,50L60.622,5 M51.962,50L69.282,20 M69.282,50L77.942,35 M86.603,50L86.603,50" stroke="#e3e3e3" stroke-width="1"></path></g><g class="ternary-ticks" font-size="10"><g class="axis-ticks"><g class="tick" transform="translate(86.60254037844388,49.99999999999999)"><text text-anchor="start" transform="rotate(0)" dx="11" dy=".5em">20%</text><line transform="rotate(90)" y2="-6" stroke="grey"></line></g><g class="tick" transform="translate(77.9422863405995,34.99999999999999)"><text text-anchor="start" transform="rotate(0)" dx="11" dy=".5em">25%</text><line transform="rotate(90)" y2="-6" stroke="grey"></line></g><g class="tick" transform="translate(69.2820323027551,19.999999999999996)"><text text-anchor="start" transform="rotate(0)" dx="11" dy=".5em">30%</text><line transform="rotate(90)" y2="-6" stroke="grey"></line></g><g class="tick" transform="translate(60.621778264910716,4.999999999999993)"><text text-anchor="start" transform="rotate(0)" dx="11" dy=".5em">35%</text><line transform="rotate(90)" y2="-6" stroke="grey"></line></g><g class="tick" transform="translate(51.96152422706632,-10.000000000000021)"><text text-anchor="start" transform="rotate(0)" dx="11" dy=".5em">40%</text><line transform="rotate(90)" y2="-6" stroke="grey"></line></g><g class="tick" transform="translate(43.30127018922193,-25.00000000000002)"><text text-anchor="start" transform="rotate(0)" dx="11" dy=".5em">45%</text><line transform="rotate(90)" y2="-6" stroke="grey"></line></g><g class="tick" transform="translate(34.64101615137754,-40.00000000000002)"><text text-anchor="start" transform="rotate(0)" dx="11" dy=".5em">50%</text><line transform="rotate(90)" y2="-6" stroke="grey"></line></g><g class="tick" transform="translate(25.980762113533146,-55.000000000000036)"><text text-anchor="start" transform="rotate(0)" dx="11" dy=".5em">55%</text><line transform="rotate(90)" y2="-6" stroke="grey"></line></g><g class="tick" transform="translate(17.320508075688778,-70)"><text text-anchor="start" transform="rotate(0)" dx="11" dy=".5em">60%</text><line transform="rotate(90)" y2="-6" stroke="grey"></line></g><g class="tick" transform="translate(8.660254037844382,-85.00000000000003)"><text text-anchor="start" transform="rotate(0)" dx="11" dy=".5em">65%</text><line transform="rotate(90)" y2="-6" stroke="grey"></line></g><g class="tick" transform="translate(0,-100)"><text text-anchor="start" transform="rotate(0)" dx="11" dy=".5em">70%</text><line transform="rotate(90)" y2="-6" stroke="grey"></line></g></g><g class="axis-ticks"><g class="tick" transform="translate(6.123233995736766e-15,-100)"><text text-anchor="end" transform="rotate(60)" dx="-11" dy=".5em">0%</text><line transform="rotate(150)" y2="6" stroke="grey"></line></g><g class="tick" transform="translate(-8.660254037844382,-85)"><text text-anchor="end" transform="rotate(60)" dx="-11" dy=".5em">5%</text><line transform="rotate(150)" y2="6" stroke="grey"></line></g><g class="tick" transform="translate(-17.320508075688767,-70)"><text text-anchor="end" transform="rotate(60)" dx="-11" dy=".5em">10%</text><line transform="rotate(150)" y2="6" stroke="grey"></line></g><g class="tick" transform="translate(-25.980762113533157,-55)"><text text-anchor="end" transform="rotate(60)" dx="-11" dy=".5em">15%</text><line transform="rotate(150)" y2="6" stroke="grey"></line></g><g class="tick" transform="translate(-34.64101615137754,-40)"><text text-anchor="end" transform="rotate(60)" dx="-11" dy=".5em">20%</text><line transform="rotate(150)" y2="6" stroke="grey"></line></g><g class="tick" transform="translate(-43.30127018922193,-25)"><text text-anchor="end" transform="rotate(60)" dx="-11" dy=".5em">25%</text><line transform="rotate(150)" y2="6" stroke="grey"></line></g><g class="tick" transform="translate(-51.96152422706632,-10)"><text text-anchor="end" transform="rotate(60)" dx="-11" dy=".5em">30%</text><line transform="rotate(150)" y2="6" stroke="grey"></line></g><g class="tick" transform="translate(-60.6217782649107,5)"><text text-anchor="end" transform="rotate(60)" dx="-11" dy=".5em">35%</text><line transform="rotate(150)" y2="6" stroke="grey"></line></g><g class="tick" transform="translate(-69.2820323027551,20)"><text text-anchor="end" transform="rotate(60)" dx="-11" dy=".5em">40%</text><line transform="rotate(150)" y2="6" stroke="grey"></line></g><g class="tick" transform="translate(-77.9422863405995,35)"><text text-anchor="end" transform="rotate(60)" dx="-11" dy=".5em">45%</text><line transform="rotate(150)" y2="6" stroke="grey"></line></g><g class="tick" transform="translate(-86.60254037844388,50)"><text text-anchor="end" transform="rotate(60)" dx="-11" dy=".5em">50%</text><line transform="rotate(150)" y2="6" stroke="grey"></line></g></g><g class="axis-ticks"><g class="tick" transform="translate(-86.60254037844388,49.99999999999999)"><text text-anchor="end" transform="rotate(-60)" dx="-11" dy=".5em">30%</text><line transform="rotate(30)" y2="6" stroke="grey"></line></g><g class="tick" transform="translate(-69.28203230275511,49.99999999999999)"><text text-anchor="end" transform="rotate(-60)" dx="-11" dy=".5em">35%</text><line transform="rotate(30)" y2="6" stroke="grey"></line></g><g class="tick" transform="translate(-51.96152422706631,49.99999999999999)"><text text-anchor="end" transform="rotate(-60)" dx="-11" dy=".5em">40%</text><line transform="rotate(30)" y2="6" stroke="grey"></line></g><g class="tick" transform="translate(-34.64101615137754,49.99999999999999)"><text text-anchor="end" transform="rotate(-60)" dx="-11" dy=".5em">45%</text><line transform="rotate(30)" y2="6" stroke="grey"></line></g><g class="tick" transform="translate(-17.320508075688778,49.99999999999999)"><text text-anchor="end" transform="rotate(-60)" dx="-11" dy=".5em">50%</text><line transform="rotate(30)" y2="6" stroke="grey"></line></g><g class="tick" transform="translate(1.4210854715202004e-14,49.99999999999999)"><text text-anchor="end" transform="rotate(-60)" dx="-11" dy=".5em">55%</text><line transform="rotate(30)" y2="6" stroke="grey"></line></g><g class="tick" transform="translate(17.320508075688778,49.99999999999999)"><text text-anchor="end" transform="rotate(-60)" dx="-11" dy=".5em">60%</text><line transform="rotate(30)" y2="6" stroke="grey"></line></g><g class="tick" transform="translate(34.641016151377556,49.99999999999999)"><text text-anchor="end" transform="rotate(-60)" dx="-11" dy=".5em">65%</text><line transform="rotate(30)" y2="6" stroke="grey"></line></g><g class="tick" transform="translate(51.96152422706632,49.99999999999999)"><text text-anchor="end" transform="rotate(-60)" dx="-11" dy=".5em">70%</text><line transform="rotate(30)" y2="6" stroke="grey"></line></g><g class="tick" transform="translate(69.28203230275511,49.99999999999999)"><text text-anchor="end" transform="rotate(-60)" dx="-11" dy=".5em">75%</text><line transform="rotate(30)" y2="6" stroke="grey"></line></g><g class="tick" transform="translate(86.60254037844388,49.99999999999999)"><text text-anchor="end" transform="rotate(-60)" dx="-11" dy=".5em">80%</text><line transform="rotate(30)" y2="6" stroke="grey"></line></g></g></g><path id="triangle" d="M6.123233995736766e-15,-100L-86.60254037844388,49.99999999999999L86.60254037844388,49.99999999999999Z" stroke="black" stroke-width="1px" fill="none"></path><g class="data"><circle cx="5.4559600438419675" cy="0.6499999999999839" r="3" fill="red"></circle><circle cx="4.353078987319314" cy="-0.0510051005100598" r="3" fill="red"></circle><circle cx="6.703036625291547" cy="2.3900000000000032" r="3" fill="red"></circle><circle cx="4.745819212738722" cy="-0.16000000000001569" r="3" fill="red"></circle><circle cx="4.924712917210039" cy="0.9390939093909423" r="3" fill="red"></circle><circle cx="5.334716487312152" cy="-0.22000000000000908" r="3" fill="red"></circle><circle cx="5.92361376188556" cy="1.100000000000001" r="3" fill="red"></circle><circle cx="28.249748671448387" cy="-37.56999999999999" r="3" fill="blue"></circle><circle cx="27.48764631611809" cy="-42.13" r="3" fill="blue"></circle><circle cx="20.957814771583415" cy="-28.84000000000001" r="3" fill="blue"></circle><circle cx="14.410662718973056" cy="23.47999999999999" r="3" fill="green"></circle><circle cx="-8.084289547878743" cy="11.530153015301526" r="3" fill="green"></circle><circle cx="4.023956421624664" cy="-2.121212121212135" r="3" fill="green"></circle></g></g></svg>